Coordinates
version=1
nRows=11
nColumns=42
inDegrees=yes

Units are S.I. units (second, meters, Newtons, ...)
If the header above contains a line with 'inDegrees', this indicates whether rotational values are in degrees (yes) or radians (no).

endheader
time	pelvis_tilt	pelvis_list	pelvis_rotation	pelvis_tx	pelvis_ty	pelvis_tz	hip_flexion_r	hip_adduction_r	hip_rotation_r	knee_angle_r	knee_adduction_r	knee_angle_r_beta	ankle_angle_r	subtalar_angle_r	mtp_angle_r	hip_flexion_l	hip_adduction_l	hip_rotation_l	knee_angle_l	knee_adduction_l	knee_angle_l_beta	ankle_angle_l	subtalar_angle_l	mtp_angle_l	lumbar_extension	lumbar_bending	lumbar_rotation	arm_flex_r	arm_add_r	arm_rot_r	elbow_flex_r	pro_sup_r	wrist_flex_r	wrist_dev_r	arm_flex_l	arm_add_l	arm_rot_l	elbow_flex_l	pro_sup_l	wrist_flex_l	wrist_dev_l
      1.11000000	     -1.64605663	     -6.22385072	      2.86738243	      0.53655507	      0.96478298	     -0.22745493	     16.51962042	      9.49392906	    -12.46709730	     20.45944226	     -3.57802070	      0.35708463	      4.33157476	     -6.27930084	     -7.56266464	      9.99922153	     -9.23132921	    -14.17367630	     61.66927461	     -9.71378187	      1.07633189	     -6.59260030	    -19.19183846	     -7.56266464	    -10.11788492	      9.39657443	      3.19051463	     -6.38561771	     -8.94641387	    -11.26680074	     26.65250131	     90.00000001	      0.00000000	      0.00000000	      7.70930192	     -6.97522413	      5.43114384	     44.03013561	     90.00000001	      0.00000000	      0.00000000
      1.12000000	     -1.73458120	     -6.00133822	      2.93240453	      0.55034876	      0.96687296	     -0.22676158	     15.21133941	      9.36333963	    -12.41757257	     19.58368188	     -3.47329558	      0.34179973	      4.88024640	     -5.63175833	     -7.56168148	     12.06334254	     -9.01520046	    -14.39736424	     62.59070054	    -10.13205033	      1.09241381	     -5.41849949	    -19.20024931	     -7.56168148	    -10.11440461	      9.09779603	      3.54612999	     -5.92809276	     -8.96151665	    -11.01773873	     27.01088515	     90.00000001	      0.00000000	      0.00000000	      7.24837615	     -7.04398131	      5.37493660	     43.88037889	     90.00000001	      0.00000000	      0.00000000
      1.13000000	     -1.88176088	     -5.75157206	      2.97038041	      0.56404623	      0.96867971	     -0.22611914	     13.97036074	      9.20001607	    -12.32365596	     18.70748490	     -3.36183362	      0.32650721	      5.42044326	     -4.99494556	     -7.56078204	     14.14060579	     -8.70775169	    -14.40538627	     63.19405953	    -10.31152940	      1.10294441	     -4.34035774	    -19.17839360	     -7.56078204	    -10.05414793	      8.76861011	      3.90411414	     -5.46511059	     -8.99981726	    -10.71495269	     27.41584845	     90.00000001	      0.00000000	      0.00000000	      6.74967358	     -7.12252613	      5.32138362	     43.72065857	     90.00000001	      0.00000000	      0.00000000
      1.14000000	     -2.08009639	     -5.49220276	      2.97558946	      0.57768971	      0.97017595	     -0.22549577	     12.80985299	      9.01513069	    -12.20710582	     17.87090368	     -3.24295182	      0.31190611	      5.94993145	     -4.36847475	     -7.55988165	     16.20388147	     -8.33569488	    -14.18930374	     63.47911347	    -10.23549371	      1.10791954	     -3.38113731	    -19.13361656	     -7.55988165	     -9.93566016	      8.42371026	      4.27166348	     -5.00690297	     -9.06457503	    -10.33836453	     27.87994089	     90.00000001	      0.00000000	      0.00000000	      6.21243467	     -7.21967260	      5.25691989	     43.55303294	     90.00000001	      0.00000000	      0.00000000
      1.15000000	     -2.40957010	     -5.37023321	      3.04176310	      0.59118118	      0.97111912	     -0.22476960	     11.86114288	      8.97660875	    -12.26169062	     17.09044794	     -3.17751842	      0.29828459	      6.51510211	     -3.65448341	     -7.55747668	     18.40490553	     -8.08304348	    -13.24235088	     63.61704225	     -9.55894099	      1.11032685	     -2.51237731	    -19.06834039	     -7.55747668	     -9.65724648	      8.20743422	      4.51340063	     -4.61348749	     -9.27349236	     -9.18561979	     28.44276069	     90.00000001	      0.00000000	      0.00000000	      5.61240814	     -7.34954263	      5.04538462	     43.37869954	     90.00000001	      0.00000000	      0.00000000
      1.16000000	     -2.60247188	     -5.05165999	      2.96760944	      0.60472221	      0.97207932	     -0.22422075	     10.78112573	      8.70925254	    -12.08551210	     16.41721382	     -3.03439768	      0.28653444	      6.99178929	     -3.13674659	     -7.55651078	     20.28587807	     -7.54834237	    -12.83091695	     63.22982199	     -9.20568694	      1.10356858	     -1.93853524	    -18.94697871	     -7.55651078	     -9.57307813	      7.79584859	      4.92648581	     -4.12804839	     -9.37102716	     -8.90786727	     29.02367511	     90.00000001	      0.00000000	      0.00000000	      5.04003379	     -7.48619481	      4.97700687	     43.18531470	     90.00000001	      0.00000000	      0.00000000
      1.17000000	     -2.78828089	     -4.75846921	      2.86076826	      0.61828862	      0.97270949	     -0.22360027	      9.71035549	      8.47450231	    -11.85673871	     15.77337726	     -2.89033079	      0.27529737	      7.56196679	     -2.61845069	     -7.55540234	     22.05342694	     -7.04808485	    -12.07446807	     62.57486721	     -8.48142347	      1.09213746	     -1.44462337	    -18.79985415	     -7.55540234	     -9.49187030	      7.39905135	      5.33281231	     -3.66541655	     -9.51960679	     -8.36495656	     29.67931078	     90.00000001	      0.00000000	      0.00000000	      4.45122125	     -7.63673275	      4.82706724	     42.94999476	     90.00000001	      0.00000000	      0.00000000
      1.18000000	     -2.94366286	     -4.56878348	      2.65381866	      0.63215712	      0.97301872	     -0.22276068	      8.72143883	      8.40428024	    -11.87532411	     15.33064443	     -2.92255732	      0.26757022	      7.99658590	     -2.31101416	     -7.55470958	     23.66174914	     -6.69377115	    -11.58297415	     61.55090440	     -7.94106367	      1.07426594	     -1.03472637	    -18.57386683	     -7.55470958	     -9.40070272	      7.09974036	      5.84126336	     -3.20980873	     -9.63303733	     -8.02990468	     30.28347532	     90.00000001	      0.00000000	      0.00000000	      3.78508923	     -7.81535782	      4.70177552	     42.70813306	     90.00000001	      0.00000000	      0.00000000
      1.19000000	     -3.11029076	     -4.28196459	      2.52328323	      0.64565024	      0.97301793	     -0.22213419	      7.65431026	      8.20259423	    -11.41396954	     14.70976255	     -2.79724108	      0.25673379	      8.65760572	     -1.75938993	     -7.55382091	     25.21561820	     -6.20357263	    -10.59157995	     60.32669282	     -6.93384641	      1.05289942	     -0.64654483	    -18.37586145	     -7.55382091	     -9.36519091	      6.69958460	      6.21885101	     -2.74558061	     -9.85116630	     -7.34162167	     31.13966912	     90.00000001	      0.00000000	      0.00000000	      3.22254063	     -7.96413032	      4.45362696	     42.40019663	     90.00000001	      0.00000000	      0.00000000
      1.20000000	     -2.90830008	     -4.15493776	      2.43753985	      0.65944523	      0.97318440	     -0.22144839	      6.26835136	      8.15487674	    -11.23385128	     14.25209295	     -2.65855430	      0.24874595	      9.15111009	     -1.53277595	     -7.55194185	     26.22054737	     -5.91551686	     -9.39995116	     58.75158851	     -5.79034197	      1.02540866	     -0.47485276	    -18.31263563	     -7.55194185	     -9.70215672	      6.47674928	      6.49433289	     -2.23378922	    -10.21716006	     -5.90103074	     32.00219970	     90.00000001	      0.00000000	      0.00000000	      2.64268225	     -8.10215248	      3.91833653	     42.06627892	     90.00000001	      0.00000000	      0.00000000
      1.21000000	     -2.96432246	     -4.03557280	      2.18563583	      0.67328765	      0.97263046	     -0.22059936	      5.19865785	      8.15636879	    -10.87149072	     13.86300539	     -2.61092405	      0.24195509	      9.72633164	     -1.24488698	     -7.55076862	     27.41886877	     -5.67870474	     -8.74079862	     56.92653812	     -5.03438133	      0.99355552	     -0.16891611	    -18.07390806	     -7.55076862	     -9.73683825	      6.24088053	      6.95705160	     -1.75202042	    -10.42991693	     -5.35002692	     32.84906817	     90.00000001	      0.00000000	      0.00000000	      2.03675568	     -8.27320599	      3.61330031	     41.67168739	     90.00000001	      0.00000000	      0.00000000
